<?xml version="1.0" encoding="UTF-8" standalone="no"?>
<svg
   version="1.1"
   width="300"
   height="165"
   id="svg38"
   viewBox="90 315 420 210"
   sodipodi:docname="d4e75374e5cf9bb08cbbf053d24a312f.cdr"
   xmlns:inkscape="http://www.inkscape.org/namespaces/inkscape"
   xmlns:sodipodi="http://sodipodi.sourceforge.net/DTD/sodipodi-0.dtd"
   xmlns="http://www.w3.org/2000/svg"
   xmlns:svg="http://www.w3.org/2000/svg">
  <defs
     id="defs42" />
  <sodipodi:namedview
     id="namedview40"
     pagecolor="#ffffff"
     bordercolor="#666666"
     borderopacity="1.0"
     inkscape:pageshadow="2"
     inkscape:pageopacity="0.0"
     inkscape:pagecheckerboard="0" />
  <g
     id="Layer1000">
    <g
       id="Layer1001">
      <path
         d="m 236.3687,464.3566 c -3.9169,-2.5344 -10.8116,-8.6686 -12.4999,-10.805 l -2.1614,9.1289 -10.4559,1.3873 9.6852,8.9144 9.6596,-10.1991 z m 138.6439,12.5317 -10.9363,-11.6163 c -19.3244,15.1693 -43.1921,22.2479 -66.6408,22.2428 -23.4488,0.005 -47.3165,-7.0735 -66.6408,-22.2428 l -10.9363,11.6163 c 21.5764,17.8416 49.6981,26.4217 77.5771,26.4192 27.879,0.002 56.0006,-8.5776 77.5771,-26.4192 z m -16.5104,-12.5317 c 3.9169,-2.5344 10.8116,-8.6686 12.4999,-10.805 l 2.1615,9.1289 10.4558,1.3873 -9.6851,8.9144 -9.6596,-10.1991 z"
         style="fill:#e30016;fill-rule:evenodd;stroke:#e30016;stroke-width:0.2835;stroke-linecap:butt;stroke-linejoin:miter;stroke-dasharray:none"
         id="path2" />
      <path
         d="m 297.4355,484.6065 c -10.0406,-15.1591 -50.8887,1.3969 -56.675,-36.5165 -1.952,-23.7078 21.7913,-30.8358 1.6611,-59.5445 l 20.173,-19.9593 c 11.1617,8.7752 29.6121,4.9425 34.8409,0.9142 5.7934,3.6465 22.3058,7.6167 33.2379,-1.0032 l 21.3919,19.5843 c -20.1302,28.7087 2.0991,36.8702 0.1471,60.578 -5.7863,37.9134 -44.7363,20.7879 -54.7769,35.947 z m 1.0834,1.3714 c -18.4672,0.0771 -38.5455,-4.4532 -58.1882,-16.0024 l 1.5375,-2.1858 -2.0043,-3.2565 c -7.2973,-4.7576 -11.7822,-9.6077 -16.9784,-14.273 l -2.7054,11.0563 -12.6754,1.1928 12.2068,11.8823 -2.461,2.7612 c 21.9047,17.2244 50.2452,27.947 80.185,28.01 29.9398,-0.063 58.2803,-10.7856 80.185,-28.01 l -2.4611,-2.7612 12.2069,-11.8823 -12.6754,-1.1928 -2.7054,-11.0563 c -5.1962,4.6653 -9.6812,9.5154 -16.9784,14.273 l -2.0044,3.2565 1.5375,2.1858 c -19.6426,11.5492 -39.721,16.0795 -58.1881,16.0024 z m -1.0834,21.3627 c -33.6597,0.4632 -57.2199,-11.1753 -83.2209,-30.1416 l 2.63,-2.7275 C 212.9268,471.562 203.183,460.9239 203.183,460.9239 l 9.9825,-0.7486 6.9395,-14.8935 13.3305,-2.4843 -2.454,9.8005 -1.4516,1.2316 2.3615,1.9834 c 0,0 2.9855,-11.2702 3.2565,-12.6121 0.271,-1.342 0.2678,-2.5821 0.0524,-2.5297 l -35.3622,6.8664 -31.9416,-13.5757 -6.463,-8.0844 78.9015,-0.9987 0.8898,-1.9 -64.9647,0.2302 -37.2685,-24.9407 -6.6498,-12.3068 113.593,20.512 0.0116,-2.1719 -92.6679,-16.4985 C 138.1826,376.3976 123.087,364.991 107.9911,353.585 l -6.6537,-12.996 135.3689,44.1414 25.0994,-23.9125 c 11.177,8.2264 23.7379,8.1184 35.6298,0.83 11.8919,7.2884 24.4527,7.3964 35.6297,-0.83 l 25.0994,23.9125 135.369,-44.1414 -6.6538,12.996 c -15.0959,11.406 -30.1915,22.8126 -45.2874,34.2181 l -92.6679,16.4985 0.0116,2.1719 113.593,-20.512 -6.6498,12.3068 -37.2685,24.9407 -64.9646,-0.2302 0.8898,1.9 78.9014,0.9987 -6.4629,8.0844 -31.9417,13.5757 -35.3621,-6.8664 c -0.2155,-0.0524 -0.2186,1.1877 0.0524,2.5297 0.271,1.3419 3.2564,12.6121 3.2564,12.6121 l 2.3616,-1.9834 -1.4516,-1.2316 -2.454,-9.8005 13.3305,2.4843 6.9395,14.8935 9.9825,0.7486 c 0,0 -9.7439,10.6381 -13.6616,13.5476 l 2.63,2.7275 c -26.0011,18.9663 -49.5612,30.6048 -83.2209,30.1416 z"
         style="fill:#c4c6c8;fill-rule:evenodd"
         id="path4" />
      <path
         d="m 245.0541,412.2973 0.3407,-2.2303 -102.6858,-18.1165 1.5724,3.7463 3.0668,1.5528 -1.0095,-2.6592 z"
         style="fill:#e30016;fill-rule:evenodd;stroke:#e30016;stroke-width:0.2835;stroke-linecap:butt;stroke-linejoin:miter;stroke-dasharray:none"
         id="path6" />
      <path
         d="m 238.783,427.3906 -0.9743,2.1918 -65.8465,1.2787 1.37,2.3136 -3.1354,-0.883 -2.3746,-3.2876 z"
         style="fill:#e30016;fill-rule:evenodd;stroke:#e30016;stroke-width:0.2835;stroke-linecap:butt;stroke-linejoin:miter;stroke-dasharray:none"
         id="path8" />
      <path
         d="m 353.1725,393.9917 1.6152,-3.4376 130.6862,-42.2639 -1.8533,3.9177 -2.7635,2.1946 1.1542,-2.7961 z"
         style="fill:#e30016;fill-rule:evenodd;stroke:#e30016;stroke-width:0.2835;stroke-linecap:butt;stroke-linejoin:miter;stroke-dasharray:none"
         id="path10" />
      <path
         d="m 349.8169,412.2973 -0.3408,-2.2303 102.6859,-18.1165 -1.5724,3.7463 -3.0668,1.5528 1.0094,-2.6592 z"
         style="fill:#e30016;fill-rule:evenodd;stroke:#e30016;stroke-width:0.2835;stroke-linecap:butt;stroke-linejoin:miter;stroke-dasharray:none"
         id="path12" />
      <path
         d="m 356.0879,427.3906 0.9743,2.1918 65.8465,1.2787 -1.37,2.3136 3.1354,-0.883 2.3746,-3.2876 z"
         style="fill:#e30016;fill-rule:evenodd;stroke:#e30016;stroke-width:0.2835;stroke-linecap:butt;stroke-linejoin:miter;stroke-dasharray:none"
         id="path14" />
      <path
         d="m 241.6984,393.9917 -1.6151,-3.4376 -130.6862,-42.2639 1.8533,3.9177 2.7635,2.1946 -1.1543,-2.7961 z"
         style="fill:#e30016;fill-rule:evenodd;stroke:#e30016;stroke-width:0.2835;stroke-linecap:butt;stroke-linejoin:miter;stroke-dasharray:none"
         id="path16" />
      <path
         d="m 297.4355,509.8249 c -22.2888,0 -43.9841,-5.603 -63.4479,-16.4429 -5.9227,-3.2984 -11.6623,-7.0892 -16.95,-11.3369 -1.0344,-0.8308 -3.312,-2.9548 -4.3486,-3.8616 l 2.8465,-3.0104 c -5.4397,-5.0145 -10.099,-9.8575 -14.5837,-14.7654 2.6068,-0.4674 6.8117,-1.1211 9.9091,-1.595 l 4.828,-9.9151 -16.3219,3.1176 -33.3105,-14.3246 -10.6968,-14.0179 14.6772,-0.2191 -33.4091,-22.7151 -9.3605,-18.5381 17.1212,2.9815 -38.6453,-29.7498 -10.7243,-21.4739 140.9944,47.0035 25.5019,-25.5279 c 11.7204,9.1805 23.2097,10.1658 35.9203,1.3952 12.7105,8.7706 24.1999,7.7853 35.9203,-1.3952 l 25.5019,25.5279 140.9943,-47.0035 -10.7243,21.4739 -38.6453,29.7498 17.1213,-2.9815 -9.3606,18.5381 -33.4091,22.7151 14.6772,0.2191 -10.6968,14.0179 -33.3104,14.3246 -16.3219,-3.1176 4.8279,9.9151 c 3.0975,0.4739 7.3024,1.1276 9.9091,1.595 -4.4847,4.9079 -9.144,9.7509 -14.5837,14.7654 l 2.8466,3.0104 c -1.0367,0.9068 -3.3143,3.0308 -4.3487,3.8616 -5.2877,4.2477 -11.0273,8.0385 -16.95,11.3369 -19.4638,10.8399 -41.159,16.4429 -63.4478,16.4429 z m 0,3.685 c -55.7623,-0.3155 -88.8641,-34.0256 -88.8641,-34.0256 l 2.9644,-2.8953 -16.444,-17.3412 13.0762,-2.4256 1.3173,-2.988 -10.5364,2.0126 -35.2358,-15.1526 -15.7172,-20.5968 10.324,-0.1542 -24.5519,-16.6933 -13.0978,-25.9386 9.6321,1.6772 -27.481,-21.1555 -14.6123,-29.423 146.7674,48.8726 26.1926,-25.8037 c 4.5134,2.984 16.9827,16.6878 36.2665,1.6562 19.2838,15.0316 31.7531,1.3278 36.2664,-1.6562 l 26.1927,25.8037 146.7674,-48.8726 -14.6123,29.423 -27.4811,21.1555 9.6322,-1.6772 -13.0978,25.9386 -24.552,16.6933 10.3241,0.1542 -15.7173,20.5968 -35.2357,15.1526 -10.5364,-2.0126 1.3172,2.988 13.0763,2.4256 -16.4441,17.3412 2.9645,2.8953 c 0,0 -33.1019,33.7101 -88.8641,34.0256 z"
         style="fill:#102a83;fill-rule:evenodd;stroke:#102a83;stroke-width:0.2835;stroke-linecap:butt;stroke-linejoin:miter;stroke-dasharray:none"
         id="path18" />
      <path
         d="m 332.047,366.8317 21.7663,20.8102 c -20.7379,29.5768 3.5007,33.9196 1.3621,59.5843 -6.0526,40.0162 -44.5221,19.1978 -58.6031,38.9953 -12.5593,-19.069 -51.825,0.8546 -57.7399,-38.2512 -2.131,-25.5767 22.1496,-29.9378 1.3621,-59.5843 l 21.7641,-20.8078 c 7.658,7.1726 24.8366,7.9118 34.452,0.5046 10.5247,6.6226 25.885,6.4374 35.6364,-1.2511 z m -35.4747,114.3051 c -9.5633,-14.4385 -49.4383,2.617 -54.9496,-33.494 -1.8591,-22.5809 21.4285,-31.5499 2.2553,-58.8936 l 18.2599,-17.4581 c 10.6311,8.3581 29.4542,4.0482 34.4344,0.2114 5.5181,3.4732 24.8852,7.2546 35.2976,-0.9555 l 18.2599,17.4578 c -19.1733,27.344 4.1144,36.313 2.2553,58.8939 -5.5113,36.1111 -46.2495,19.7996 -55.8128,34.2381 z"
         style="fill:#1b1918;fill-rule:evenodd;stroke:#1b1918;stroke-width:0.5669;stroke-linecap:butt;stroke-linejoin:miter;stroke-dasharray:none"
         id="path20" />
      <path
         d="m 339.5866,409.3379 -0.003,-0.0803 c -0.049,-1.3093 -0.007,-2.641 0.1401,-4.0056 0.6534,-6.0744 3.2743,-11.736 6.5721,-16.8338 l -14.7277,-14.0808 c -5.6656,3.4477 -12.831,4.3489 -19.3345,4.0127 -4.4907,-0.2322 -11.0285,-1.2872 -15.5245,-3.4229 -4.2373,2.3916 -10.6628,3.6477 -15.0089,3.9822 -6.5268,0.5023 -13.5938,-0.3705 -19.2612,-3.8277 l -14.7274,14.0809 c 3.2979,5.0975 5.9188,10.7594 6.5722,16.8335 0.1145,1.0641 0.1655,2.1084 0.1593,3.1374 l -0.002,0.2044 z"
         style="fill:#e30016;fill-rule:evenodd;stroke:#e30016;stroke-width:0.5669;stroke-linecap:butt;stroke-linejoin:miter;stroke-dasharray:none"
         id="path22" />
      <path
         d="m 296.5725,476.7208 c 3.1303,-2.7131 7.3208,-4.0093 11.3936,-4.8359 5.7665,-1.1702 11.6952,-1.5616 17.494,-2.6385 13.5919,-2.5237 21.735,-8.1034 23.995,-22.6908 0.8104,-10.271 -4.0266,-17.1847 -7.4494,-26.2791 -1.3669,-3.6309 -2.2677,-7.1944 -2.4191,-10.9386 h -85.1454 c -0.0541,4.0181 -0.9822,7.8122 -2.4389,11.6827 -3.4232,9.0944 -8.2599,16.0081 -7.4498,26.2791 2.2326,14.4156 10.0191,19.9707 23.529,22.3126 5.7039,0.9888 11.5316,1.2907 17.2029,2.3831 4.0604,0.7821 8.1893,2.0427 11.2881,4.7254 z"
         style="fill:#102a83;fill-rule:evenodd;stroke:#102a83;stroke-width:0.5669;stroke-linecap:butt;stroke-linejoin:miter;stroke-dasharray:none"
         id="path24" />
    </g>
    <text
       x="264.255"
       y="457.75021"
       id="text29"><tspan
         font-family="'Arial Black'"
         font-size="53px"
         fill="#ffffff"
         id="tspan27">66</tspan></text>
    <text
       x="262.3096"
       y="404.59241"
       id="text33"><tspan
         font-family="'Arial Black'"
         font-size="24px"
         fill="#ffffff"
         id="tspan31">ROTA</tspan></text>
    <path
       d="m 257.5106,488.6354 c 0.3679,-1.1089 0.8438,-1.9848 1.4255,-2.6292 0.4294,-0.4725 0.934,-0.8589 1.5077,-1.1573 0.5741,-0.2985 1.1503,-0.4698 1.7306,-0.516 0.7733,-0.0609 1.603,0.0542 2.4891,0.3479 1.6047,0.5323 2.7198,1.4561 3.3539,2.7705 0.6313,1.3162 0.6529,2.8605 0.0644,4.6344 -0.5837,1.7595 -1.5188,2.9772 -2.8021,3.653 -1.284,0.6781 -2.7269,0.7503 -4.3239,0.2205 -1.6172,-0.5366 -2.742,-1.4578 -3.3679,-2.7637 -0.6267,-1.3037 -0.6533,-2.8242 -0.0773,-4.5601 z m 2.2869,0.6769 c -0.4087,1.2325 -0.4328,2.2617 -0.0745,3.0883 0.3586,0.8241 0.9765,1.3833 1.8524,1.6739 0.8782,0.2911 1.702,0.2134 2.4755,-0.2299 0.7716,-0.4462 1.3669,-1.2997 1.7859,-2.5625 0.4138,-1.2478 0.4495,-2.27 0.1034,-3.0646 -0.3427,-0.7962 -0.9674,-1.3439 -1.8762,-1.6452 -0.906,-0.3005 -1.7408,-0.2319 -2.5008,0.2044 -0.7608,0.4385 -1.3498,1.2827 -1.7657,2.5356 z m 10.9854,9.0275 2.3321,-11.2161 7.7071,1.6024 -0.394,1.8955 -5.4357,-1.1302 -0.5536,2.6629 4.6992,0.9771 -0.394,1.8955 -4.6995,-0.9771 -0.9902,4.7622 z m 12.2593,2.1166 1.0724,-11.4055 2.3099,0.2172 -1.0723,11.4054 z m 14.6444,-3.3281 2.2274,0.7276 c -0.3665,1.2549 -0.9561,2.1807 -1.7668,2.7797 -0.8107,0.5961 -1.8292,0.8849 -3.0583,0.8631 -1.5225,-0.0269 -2.7638,-0.5689 -3.7267,-1.6259 -0.9598,-1.0574 -1.4253,-2.4872 -1.3933,-4.2923 0.0338,-1.9063 0.5531,-3.3797 1.5557,-4.4183 1.0026,-1.0384 2.3077,-1.5435 3.9127,-1.5151 1.4023,0.0249 2.5336,0.4612 3.3936,1.3059 0.5139,0.4994 0.8904,1.2104 1.1356,2.135 l -2.2972,0.5035 c -0.1256,-0.5945 -0.3997,-1.0687 -0.8232,-1.4202 -0.4258,-0.3518 -0.9454,-0.5318 -1.5585,-0.5425 -0.8504,-0.0151 -1.5466,0.2769 -2.0855,0.8778 -0.5411,0.5987 -0.8226,1.5806 -0.8467,2.9455 -0.0255,1.4451 0.2175,2.4818 0.7263,3.104 0.5119,0.625 1.1837,0.9439 2.0182,0.9586 0.6157,0.0108 1.1498,-0.174 1.5993,-0.5584 0.4499,-0.3841 0.7804,-0.9915 0.9874,-1.828 z m 6.8198,4.0855 -0.6125,-11.4395 2.317,-0.1241 0.6123,11.4395 z m 7.2624,-0.4612 -1.4791,-11.3601 2.2266,-0.2897 5.6664,7.0044 -0.9912,-7.6133 2.1259,-0.2766 1.4792,11.3601 -2.2981,0.299 -5.576,-6.868 0.9723,7.4676 z m 24.1339,-4.746 -2.4208,0.6194 -1.6047,-2.2814 -4.4512,1.1384 -0.2761,2.7624 -2.3769,0.608 1.4703,-12.2009 2.3743,-0.6071 z m -5.2339,-3.3514 -2.5929,-3.7134 -0.4476,4.4912 z"
       style="fill:#ffffff;fill-rule:evenodd;stroke:#ffffff;stroke-width:0.5669;stroke-linecap:butt;stroke-linejoin:miter;stroke-dasharray:none"
       id="path35" />
  </g>
</svg>
